# xmcd
#
# Track frame offsets: 
#        150
#        18105
#        36300
#        52338
#        65473
#        83034
#
# Disc length: 1409 seconds
#
# Revision: 1
# Processed by: cddbd v1.5.2PL0 Copyright (c) Steve Scherf et al.
# Submitted via: ExactAudioCopy v0.99pb3
#
DISCID=49057f06
DTITLE=Kate Miller-Heidke - Circular Breathing
DYEAR=2005
DGENRE=Pop
TTITLE0=Out and In
TTITLE1=Jamie
TTITLE2=Apartment
TTITLE3=Caveman Days
TTITLE4=Four Spare Seats
TTITLE5=River of Dreams
EXTD=
EXTT0=
EXTT1=
EXTT2=
EXTT3=
EXTT4=
EXTT5=
PLAYORDER=
